<svg width="458" height="74" viewBox="0 0 458 74" fill="none" xmlns="http://www.w3.org/2000/svg">
<path d="M25.9688 42.1562V34.4375H45.9062V52.6875C43.9688 54.5625 41.1562 56.2188 37.4688 57.6562C33.8021 59.0729 30.0833 59.7812 26.3125 59.7812C21.5208 59.7812 17.3438 58.7812 13.7812 56.7812C10.2188 54.7604 7.54167 51.8854 5.75 48.1562C3.95833 44.4062 3.0625 40.3333 3.0625 35.9375C3.0625 31.1667 4.0625 26.9271 6.0625 23.2188C8.0625 19.5104 10.9896 16.6667 14.8438 14.6875C17.7812 13.1667 21.4375 12.4062 25.8125 12.4062C31.5 12.4062 35.9375 13.6042 39.125 16C42.3333 18.375 44.3958 21.6667 45.3125 25.875L36.125 27.5938C35.4792 25.3438 34.2604 23.5729 32.4688 22.2812C30.6979 20.9688 28.4792 20.3125 25.8125 20.3125C21.7708 20.3125 18.5521 21.5938 16.1562 24.1562C13.7812 26.7188 12.5938 30.5208 12.5938 35.5625C12.5938 41 13.8021 45.0833 16.2188 47.8125C18.6354 50.5208 21.8021 51.875 25.7188 51.875C27.6562 51.875 29.5938 51.5 31.5312 50.75C33.4896 49.9792 35.1667 49.0521 36.5625 47.9688V42.1562H25.9688ZM71 13.1875H80.2188V42.1875C80.2188 45.9792 79.8854 48.8958 79.2188 50.9375C78.3229 53.6042 76.6979 55.75 74.3438 57.375C71.9896 58.9792 68.8854 59.7812 65.0312 59.7812C60.5104 59.7812 57.0312 58.5208 54.5938 56C52.1562 53.4583 50.9271 49.7396 50.9062 44.8438L59.625 43.8438C59.7292 46.4688 60.1146 48.3229 60.7812 49.4062C61.7812 51.0521 63.3021 51.875 65.3438 51.875C67.4062 51.875 68.8646 51.2917 69.7188 50.125C70.5729 48.9375 71 46.4896 71 42.7812V13.1875ZM90.0938 59V13.1875H104.938C110.562 13.1875 114.229 13.4167 115.938 13.875C118.562 14.5625 120.76 16.0625 122.531 18.375C124.302 20.6667 125.188 23.6354 125.188 27.2812C125.188 30.0938 124.677 32.4583 123.656 34.375C122.635 36.2917 121.333 37.8021 119.75 38.9062C118.188 39.9896 116.594 40.7083 114.969 41.0625C112.76 41.5 109.562 41.7188 105.375 41.7188H99.3438V59H90.0938ZM99.3438 20.9375V33.9375H104.406C108.052 33.9375 110.49 33.6979 111.719 33.2188C112.948 32.7396 113.906 31.9896 114.594 30.9688C115.302 29.9479 115.656 28.7604 115.656 27.4062C115.656 25.7396 115.167 24.3646 114.188 23.2812C113.208 22.1979 111.969 21.5208 110.469 21.25C109.365 21.0417 107.146 20.9375 103.812 20.9375H99.3438Z" fill="black"/>
<path d="M25.9688 42.1562H24.9688V43.1562H25.9688V42.1562ZM25.9688 34.4375V33.4375H24.9688V34.4375H25.9688ZM45.9062 34.4375H46.9062V33.4375H45.9062V34.4375ZM45.9062 52.6875L46.6017 53.4061L46.9062 53.1113V52.6875H45.9062ZM37.4688 57.6562L37.8292 58.5891L37.832 58.588L37.4688 57.6562ZM13.7812 56.7812L13.2878 57.6511L13.2917 57.6532L13.7812 56.7812ZM5.75 48.1562L4.84769 48.5874L4.84863 48.5893L5.75 48.1562ZM14.8438 14.6875L15.3006 15.5771L15.3035 15.5755L14.8438 14.6875ZM39.125 16L38.5241 16.7994L38.53 16.8037L39.125 16ZM45.3125 25.875L45.4964 26.8579L46.5088 26.6686L46.2896 25.6622L45.3125 25.875ZM36.125 27.5938L35.1638 27.8696L35.4148 28.744L36.3089 28.5767L36.125 27.5938ZM32.4688 22.2812L31.8732 23.0847L31.8839 23.0924L32.4688 22.2812ZM16.1562 24.1562L15.4258 23.4733L15.4228 23.4765L16.1562 24.1562ZM16.2188 47.8125L15.4701 48.4754L15.4726 48.4783L16.2188 47.8125ZM31.5312 50.75L31.8922 51.6826L31.8975 51.6805L31.5312 50.75ZM36.5625 47.9688L37.1756 48.7587L37.5625 48.4585V47.9688H36.5625ZM36.5625 42.1562H37.5625V41.1562H36.5625V42.1562ZM26.9688 42.1562V34.4375H24.9688V42.1562H26.9688ZM25.9688 35.4375H45.9062V33.4375H25.9688V35.4375ZM44.9062 34.4375V52.6875H46.9062V34.4375H44.9062ZM45.2108 51.9689C43.4026 53.7188 40.7222 55.3147 37.1055 56.7245L37.832 58.588C41.5903 57.1228 44.5349 55.4062 46.6017 53.4061L45.2108 51.9689ZM37.1084 56.7235C33.5517 58.0976 29.9549 58.7812 26.3125 58.7812V60.7812C30.2118 60.7812 34.0525 60.0482 37.8291 58.589L37.1084 56.7235ZM26.3125 58.7812C21.6625 58.7812 17.6598 57.8119 14.2708 55.9093L13.2917 57.6532C17.0277 59.7506 21.3792 60.7812 26.3125 60.7812V58.7812ZM14.2746 55.9114C10.8914 53.9923 8.3557 51.2706 6.65137 47.7232L4.84863 48.5893C6.72763 52.5002 9.54611 55.5285 13.2879 57.6511L14.2746 55.9114ZM6.6523 47.7251C4.92865 44.1175 4.0625 40.193 4.0625 35.9375H2.0625C2.0625 40.4737 2.98802 44.695 4.8477 48.5874L6.6523 47.7251ZM4.0625 35.9375C4.0625 31.3102 5.03123 27.2375 6.94265 23.6934L5.18235 22.7441C3.09377 26.6166 2.0625 31.0232 2.0625 35.9375H4.0625ZM6.94265 23.6934C8.84386 20.1683 11.6208 17.4667 15.3006 15.5771L14.3869 13.7979C10.3584 15.8666 7.28114 18.8525 5.18235 22.7441L6.94265 23.6934ZM15.3035 15.5755C18.0606 14.1481 21.5479 13.4062 25.8125 13.4062V11.4062C21.3271 11.4062 17.5019 12.1852 14.384 13.7995L15.3035 15.5755ZM25.8125 13.4062C31.3728 13.4062 35.5699 14.5789 38.5242 16.7994L39.7258 15.2006C36.3051 12.6294 31.6272 11.4062 25.8125 11.4062V13.4062ZM38.53 16.8037C41.5276 19.0227 43.4659 22.096 44.3354 26.0878L46.2896 25.6622C45.3258 21.2373 43.1391 17.7273 39.72 15.1963L38.53 16.8037ZM45.1286 24.8921L35.9411 26.6108L36.3089 28.5767L45.4964 26.8579L45.1286 24.8921ZM37.0862 27.3179C36.3824 24.8661 35.0385 22.9011 33.0536 21.4701L31.8839 23.0924C33.4823 24.2447 34.5759 25.8214 35.1638 27.8696L37.0862 27.3179ZM33.0642 21.4779C31.0874 20.0127 28.6475 19.3125 25.8125 19.3125V21.3125C28.3108 21.3125 30.3084 21.9248 31.8733 23.0846L33.0642 21.4779ZM25.8125 19.3125C21.5401 19.3125 18.0401 20.6771 15.4258 23.4733L16.8867 24.8392C19.0641 22.5104 22.0016 21.3125 25.8125 21.3125V19.3125ZM15.4228 23.4765C12.8137 26.2916 11.5938 30.3795 11.5938 35.5625H13.5938C13.5938 30.6621 14.7488 27.1459 16.8897 24.836L15.4228 23.4765ZM11.5938 35.5625C11.5938 41.1274 12.8279 45.4916 15.4701 48.4754L16.9674 47.1496C14.7763 44.675 13.5938 40.8726 13.5938 35.5625H11.5938ZM15.4726 48.4783C18.0953 51.4175 21.5425 52.875 25.7188 52.875V50.875C22.0617 50.875 19.1756 49.6242 16.9649 47.1467L15.4726 48.4783ZM25.7188 52.875C27.7884 52.875 29.848 52.4739 31.8922 51.6826L31.1703 49.8174C29.3395 50.5261 27.5241 50.875 25.7188 50.875V52.875ZM31.8975 51.6805C33.928 50.8813 35.6919 49.9103 37.1756 48.7587L35.9494 47.1788C34.6415 48.1939 33.0511 49.0771 31.165 49.8195L31.8975 51.6805ZM37.5625 47.9688V42.1562H35.5625V47.9688H37.5625ZM36.5625 41.1562H25.9688V43.1562H36.5625V41.1562ZM71 13.1875V12.1875H70V13.1875H71ZM80.2188 13.1875H81.2188V12.1875H80.2188V13.1875ZM79.2188 50.9375L80.1667 51.256L80.1694 51.2479L79.2188 50.9375ZM74.3438 57.375L74.9069 58.2014L74.9118 58.198L74.3438 57.375ZM54.5938 56L53.872 56.6922L53.8749 56.6951L54.5938 56ZM50.9062 44.8438L50.7923 43.8503L49.9024 43.9523L49.9063 44.848L50.9062 44.8438ZM59.625 43.8438L60.6242 43.8041L60.5815 42.7275L59.5111 42.8503L59.625 43.8438ZM60.7812 49.4062L61.6359 48.887L61.6329 48.8822L60.7812 49.4062ZM69.7188 50.125L70.5256 50.7158L70.5306 50.7089L69.7188 50.125ZM71 14.1875H80.2188V12.1875H71V14.1875ZM79.2188 13.1875V42.1875H81.2188V13.1875H79.2188ZM79.2188 42.1875C79.2188 45.9414 78.8862 48.7343 78.2681 50.6271L80.1694 51.2479C80.8846 49.0574 81.2188 46.017 81.2188 42.1875H79.2188ZM78.2708 50.6191C77.445 53.0772 75.9553 55.0475 73.7757 56.552L74.9118 58.198C77.4406 56.4525 79.2008 54.1311 80.1667 51.2559L78.2708 50.6191ZM73.7806 56.5486C71.6418 58.0061 68.7538 58.7812 65.0312 58.7812V60.7812C69.017 60.7812 72.3374 59.9522 74.9069 58.2014L73.7806 56.5486ZM65.0312 58.7812C60.6991 58.7812 57.5113 57.5787 55.3126 55.3049L53.8749 56.6951C56.5512 59.463 60.3218 60.7812 65.0312 60.7812V58.7812ZM55.3155 55.3078C53.115 53.0133 51.9264 49.5799 51.9062 44.8395L49.9063 44.848C49.9278 49.8993 51.1975 53.9034 53.872 56.6922L55.3155 55.3078ZM51.0202 45.8372L59.7389 44.8372L59.5111 42.8503L50.7923 43.8503L51.0202 45.8372ZM58.6258 43.8834C58.7309 46.5335 59.1189 48.613 59.9296 49.9303L61.6329 48.8822C61.1103 48.0329 60.7274 46.404 60.6242 43.8041L58.6258 43.8834ZM59.9266 49.9255C61.1209 51.891 62.9783 52.875 65.3438 52.875V50.875C63.6259 50.875 62.4416 50.2132 61.6359 48.887L59.9266 49.9255ZM65.3438 52.875C67.5807 52.875 69.4116 52.2374 70.5256 50.7157L68.9119 49.5343C68.3176 50.346 67.2318 50.875 65.3438 50.875V52.875ZM70.5306 50.7089C71.087 49.9354 71.4411 48.8527 71.6648 47.5703C71.8918 46.2693 72 44.6679 72 42.7812H70C70 44.603 69.8947 46.0797 69.6946 47.2266C69.4912 48.3921 69.2047 49.1271 68.9069 49.5411L70.5306 50.7089ZM72 42.7812V13.1875H70V42.7812H72ZM90.0938 59H89.0938V60H90.0938V59ZM90.0938 13.1875V12.1875H89.0938V13.1875H90.0938ZM115.938 13.875L115.678 14.8409L115.684 14.8424L115.938 13.875ZM122.531 18.375L121.737 18.983L121.74 18.9864L122.531 18.375ZM119.75 38.9062L120.32 39.7281L120.322 39.7265L119.75 38.9062ZM114.969 41.0625L115.163 42.0434L115.172 42.0416L115.182 42.0396L114.969 41.0625ZM99.3438 41.7188V40.7188H98.3438V41.7188H99.3438ZM99.3438 59V60H100.344V59H99.3438ZM99.3438 20.9375V19.9375H98.3438V20.9375H99.3438ZM99.3438 33.9375H98.3438V34.9375H99.3438V33.9375ZM114.594 30.9688L113.772 30.3986L113.764 30.4101L114.594 30.9688ZM110.469 21.25L110.283 22.2327L110.291 22.2341L110.469 21.25ZM91.0938 59V13.1875H89.0938V59H91.0938ZM90.0938 14.1875H104.938V12.1875H90.0938V14.1875ZM104.938 14.1875C110.591 14.1875 114.12 14.4229 115.678 14.8408L116.197 12.9092C114.338 12.4105 110.534 12.1875 104.938 12.1875V14.1875ZM115.684 14.8424C118.078 15.4693 120.091 16.8332 121.737 18.983L123.325 17.767C121.43 15.2918 119.047 13.6557 116.191 12.9076L115.684 14.8424ZM121.74 18.9864C123.344 21.0619 124.188 23.7985 124.188 27.2812H126.188C126.188 23.4723 125.26 20.2714 123.323 17.7636L121.74 18.9864ZM124.188 27.2812C124.188 29.9767 123.698 32.1694 122.774 33.9049L124.539 34.8451C125.656 32.7473 126.188 30.2108 126.188 27.2812H124.188ZM122.774 33.9049C121.818 35.6996 120.616 37.0831 119.178 38.086L120.322 39.7265C122.051 38.521 123.453 36.8838 124.539 34.8451L122.774 33.9049ZM119.18 38.0845C117.71 39.1038 116.236 39.7629 114.756 40.0854L115.182 42.0396C116.952 41.6538 118.665 40.8754 120.32 39.728L119.18 38.0845ZM114.774 40.0816C112.663 40.4999 109.543 40.7188 105.375 40.7188V42.7188C109.582 42.7188 112.858 42.5001 115.163 42.0434L114.774 40.0816ZM105.375 40.7188H99.3438V42.7188H105.375V40.7188ZM98.3438 41.7188V59H100.344V41.7188H98.3438ZM99.3438 58H90.0938V60H99.3438V58ZM98.3438 20.9375V33.9375H100.344V20.9375H98.3438ZM99.3438 34.9375H104.406V32.9375H99.3438V34.9375ZM104.406 34.9375C106.248 34.9375 107.804 34.8771 109.067 34.753C110.313 34.6305 111.338 34.4404 112.082 34.1505L111.356 32.287C110.87 32.4763 110.062 32.6455 108.871 32.7626C107.696 32.8781 106.211 32.9375 104.406 32.9375V34.9375ZM112.082 34.1505C113.487 33.6029 114.614 32.7295 115.423 31.5274L113.764 30.4101C113.199 31.2497 112.409 31.8763 111.356 32.287L112.082 34.1505ZM115.415 31.5388C116.25 30.3355 116.656 28.945 116.656 27.4062H114.656C114.656 28.5759 114.354 29.5604 113.772 30.3987L115.415 31.5388ZM116.656 27.4062C116.656 25.5293 116.098 23.9039 114.929 22.6107L113.446 23.9518C114.235 24.8253 114.656 25.9499 114.656 27.4062H116.656ZM114.929 22.6107C113.795 21.3558 112.354 20.5742 110.646 20.2659L110.291 22.2341C111.584 22.4675 112.622 23.04 113.446 23.9518L114.929 22.6107ZM110.654 20.2673C109.443 20.0388 107.131 19.9375 103.812 19.9375V21.9375C107.161 21.9375 109.286 22.0445 110.283 22.2327L110.654 20.2673ZM103.812 19.9375H99.3438V21.9375H103.812V19.9375Z" fill="#FCF7CD"/>
<path d="M141.594 13.1875H150.844V38C150.844 41.9375 150.958 44.4896 151.188 45.6562C151.583 47.5312 152.521 49.0417 154 50.1875C155.5 51.3125 157.542 51.875 160.125 51.875C162.75 51.875 164.729 51.3438 166.062 50.2812C167.396 49.1979 168.198 47.875 168.469 46.3125C168.74 44.75 168.875 42.1562 168.875 38.5312V13.1875H178.125V37.25C178.125 42.75 177.875 46.6354 177.375 48.9062C176.875 51.1771 175.948 53.0938 174.594 54.6562C173.26 56.2188 171.469 57.4688 169.219 58.4062C166.969 59.3229 164.031 59.7812 160.406 59.7812C156.031 59.7812 152.708 59.2812 150.438 58.2812C148.188 57.2604 146.406 55.9479 145.094 54.3438C143.781 52.7188 142.917 51.0208 142.5 49.25C141.896 46.625 141.594 42.75 141.594 37.625V13.1875ZM183.25 59L198.906 35.0938L184.719 13.1875H195.531L204.719 27.9062L213.719 13.1875H224.438L210.188 35.4375L225.844 59H214.688L204.531 43.1562L194.344 59H183.25ZM248.375 13.1875H265.281C269.094 13.1875 272 13.4792 274 14.0625C276.688 14.8542 278.99 16.2604 280.906 18.2812C282.823 20.3021 284.281 22.7812 285.281 25.7188C286.281 28.6354 286.781 32.2396 286.781 36.5312C286.781 40.3021 286.312 43.5521 285.375 46.2812C284.229 49.6146 282.594 52.3125 280.469 54.375C278.865 55.9375 276.698 57.1562 273.969 58.0312C271.927 58.6771 269.198 59 265.781 59H248.375V13.1875ZM257.625 20.9375V51.2812H264.531C267.115 51.2812 268.979 51.1354 270.125 50.8438C271.625 50.4688 272.865 49.8333 273.844 48.9375C274.844 48.0417 275.656 46.5729 276.281 44.5312C276.906 42.4688 277.219 39.6667 277.219 36.125C277.219 32.5833 276.906 29.8646 276.281 27.9688C275.656 26.0729 274.781 24.5938 273.656 23.5312C272.531 22.4688 271.104 21.75 269.375 21.375C268.083 21.0833 265.552 20.9375 261.781 20.9375H257.625ZM313.812 48.4375L322.562 49.9062C321.438 53.1146 319.656 55.5625 317.219 57.25C314.802 58.9167 311.771 59.75 308.125 59.75C302.354 59.75 298.083 57.8646 295.312 54.0938C293.125 51.0729 292.031 47.2604 292.031 42.6562C292.031 37.1562 293.469 32.8542 296.344 29.75C299.219 26.625 302.854 25.0625 307.25 25.0625C312.188 25.0625 316.083 26.6979 318.938 29.9688C321.792 33.2188 323.156 38.2083 323.031 44.9375H301.031C301.094 47.5417 301.802 49.5729 303.156 51.0312C304.51 52.4688 306.198 53.1875 308.219 53.1875C309.594 53.1875 310.75 52.8125 311.688 52.0625C312.625 51.3125 313.333 50.1042 313.812 48.4375ZM314.312 39.5625C314.25 37.0208 313.594 35.0938 312.344 33.7812C311.094 32.4479 309.573 31.7812 307.781 31.7812C305.865 31.7812 304.281 32.4792 303.031 33.875C301.781 35.2708 301.167 37.1667 301.188 39.5625H314.312ZM327.125 49.5312L335.938 48.1875C336.312 49.8958 337.073 51.1979 338.219 52.0938C339.365 52.9688 340.969 53.4062 343.031 53.4062C345.302 53.4062 347.01 52.9896 348.156 52.1562C348.927 51.5729 349.312 50.7917 349.312 49.8125C349.312 49.1458 349.104 48.5938 348.688 48.1562C348.25 47.7396 347.271 47.3542 345.75 47C338.667 45.4375 334.177 44.0104 332.281 42.7188C329.656 40.9271 328.344 38.4375 328.344 35.25C328.344 32.375 329.479 29.9583 331.75 28C334.021 26.0417 337.542 25.0625 342.312 25.0625C346.854 25.0625 350.229 25.8021 352.438 27.2812C354.646 28.7604 356.167 30.9479 357 33.8438L348.719 35.375C348.365 34.0833 347.688 33.0938 346.688 32.4062C345.708 31.7188 344.302 31.375 342.469 31.375C340.156 31.375 338.5 31.6979 337.5 32.3438C336.833 32.8021 336.5 33.3958 336.5 34.125C336.5 34.75 336.792 35.2812 337.375 35.7188C338.167 36.3021 340.896 37.125 345.562 38.1875C350.25 39.25 353.521 40.5521 355.375 42.0938C357.208 43.6562 358.125 45.8333 358.125 48.625C358.125 51.6667 356.854 54.2812 354.312 56.4688C351.771 58.6562 348.01 59.75 343.031 59.75C338.51 59.75 334.927 58.8333 332.281 57C329.656 55.1667 327.938 52.6771 327.125 49.5312ZM365.844 21.3125V13.1875H374.625V21.3125H365.844ZM365.844 59V25.8125H374.625V59H365.844ZM382.844 61.1875L392.875 62.4062C393.042 63.5729 393.427 64.375 394.031 64.8125C394.865 65.4375 396.177 65.75 397.969 65.75C400.26 65.75 401.979 65.4062 403.125 64.7188C403.896 64.2604 404.479 63.5208 404.875 62.5C405.146 61.7708 405.281 60.4271 405.281 58.4688V53.625C402.656 57.2083 399.344 59 395.344 59C390.885 59 387.354 57.1146 384.75 53.3438C382.708 50.3646 381.688 46.6562 381.688 42.2188C381.688 36.6562 383.021 32.4062 385.688 29.4688C388.375 26.5312 391.708 25.0625 395.688 25.0625C399.792 25.0625 403.177 26.8646 405.844 30.4688V25.8125H414.062V55.5938C414.062 59.5104 413.74 62.4375 413.094 64.375C412.448 66.3125 411.542 67.8333 410.375 68.9375C409.208 70.0417 407.646 70.9062 405.688 71.5312C403.75 72.1562 401.292 72.4688 398.312 72.4688C392.688 72.4688 388.698 71.5 386.344 69.5625C383.99 67.6458 382.812 65.2083 382.812 62.25C382.812 61.9583 382.823 61.6042 382.844 61.1875ZM390.688 41.7188C390.688 45.2396 391.365 47.8229 392.719 49.4688C394.094 51.0938 395.781 51.9062 397.781 51.9062C399.927 51.9062 401.74 51.0729 403.219 49.4062C404.698 47.7188 405.438 45.2292 405.438 41.9375C405.438 38.5 404.729 35.9479 403.312 34.2812C401.896 32.6146 400.104 31.7812 397.938 31.7812C395.833 31.7812 394.094 32.6042 392.719 34.25C391.365 35.875 390.688 38.3646 390.688 41.7188ZM452.969 59H444.188V42.0625C444.188 38.4792 444 36.1667 443.625 35.125C443.25 34.0625 442.635 33.2396 441.781 32.6562C440.948 32.0729 439.938 31.7812 438.75 31.7812C437.229 31.7812 435.865 32.1979 434.656 33.0312C433.448 33.8646 432.615 34.9688 432.156 36.3438C431.719 37.7188 431.5 40.2604 431.5 43.9688V59H422.719V25.8125H430.875V30.6875C433.771 26.9375 437.417 25.0625 441.812 25.0625C443.75 25.0625 445.521 25.4167 447.125 26.125C448.729 26.8125 449.938 27.6979 450.75 28.7812C451.583 29.8646 452.156 31.0938 452.469 32.4688C452.802 33.8438 452.969 35.8125 452.969 38.375V59Z" fill="#FCF7CD"/>
<path d="M141.594 13.1875V12.1875H140.594V13.1875H141.594ZM150.844 13.1875H151.844V12.1875H150.844V13.1875ZM151.188 45.6562L150.206 45.849L150.209 45.8628L151.188 45.6562ZM154 50.1875L153.388 50.978L153.394 50.9828L153.4 50.9875L154 50.1875ZM166.062 50.2812L166.686 51.0633L166.693 51.0574L166.062 50.2812ZM168.875 13.1875V12.1875H167.875V13.1875H168.875ZM178.125 13.1875H179.125V12.1875H178.125V13.1875ZM174.594 54.6562L173.838 54.0013L173.833 54.0071L174.594 54.6562ZM169.219 58.4062L169.596 59.3324L169.603 59.3293L169.219 58.4062ZM150.438 58.2812L150.024 59.192L150.034 59.1964L150.438 58.2812ZM145.094 54.3438L144.316 54.9721L144.32 54.977L145.094 54.3438ZM142.5 49.25L141.525 49.4743L141.527 49.479L142.5 49.25ZM141.594 14.1875H150.844V12.1875H141.594V14.1875ZM149.844 13.1875V38H151.844V13.1875H149.844ZM149.844 38C149.844 41.9137 149.955 44.5687 150.206 45.849L152.169 45.4635C151.962 44.4105 151.844 41.9613 151.844 38H149.844ZM150.209 45.8628C150.653 47.9636 151.716 49.6833 153.388 50.978L154.612 49.397C153.325 48.4 152.514 47.0989 152.166 45.4497L150.209 45.8628ZM153.4 50.9875C155.128 52.2834 157.406 52.875 160.125 52.875V50.875C157.678 50.875 155.872 50.3416 154.6 49.3875L153.4 50.9875ZM160.125 52.875C162.861 52.875 165.102 52.3252 166.686 51.0633L165.439 49.4992C164.356 50.3623 162.639 50.875 160.125 50.875V52.875ZM166.693 51.0574C168.197 49.8354 169.138 48.3044 169.454 46.4833L167.483 46.1417C167.257 47.4456 166.595 48.5604 165.432 49.5051L166.693 51.0574ZM169.454 46.4833C169.741 44.8287 169.875 42.1597 169.875 38.5312H167.875C167.875 42.1528 167.738 44.6713 167.483 46.1417L169.454 46.4833ZM169.875 38.5312V13.1875H167.875V38.5312H169.875ZM168.875 14.1875H178.125V12.1875H168.875V14.1875ZM177.125 13.1875V37.25H179.125V13.1875H177.125ZM177.125 37.25C177.125 42.7488 176.873 46.537 176.398 48.6912L178.352 49.1213C178.877 46.7338 179.125 42.7512 179.125 37.25H177.125ZM176.398 48.6912C175.93 50.8199 175.07 52.5798 173.838 54.0013L175.349 55.3112C176.826 53.6077 177.82 51.5343 178.352 49.1213L176.398 48.6912ZM173.833 54.0071C172.619 55.4296 170.966 56.5949 168.834 57.4832L169.603 59.3293C171.972 58.3426 173.902 57.0079 175.354 55.3054L173.833 54.0071ZM168.841 57.4802C166.755 58.3302 163.96 58.7812 160.406 58.7812V60.7812C164.103 60.7812 167.182 60.3157 169.596 59.3323L168.841 57.4802ZM160.406 58.7812C156.08 58.7812 152.922 58.2827 150.841 57.3661L150.034 59.1964C152.495 60.2798 155.982 60.7812 160.406 60.7812V58.7812ZM150.851 57.3706C148.714 56.4012 147.066 55.175 145.868 53.7105L144.32 54.977C145.747 56.7209 147.661 58.1196 150.024 59.1919L150.851 57.3706ZM145.872 53.7154C144.64 52.1898 143.851 50.6255 143.473 49.021L141.527 49.479C141.982 51.4162 142.923 53.2477 144.316 54.9721L145.872 53.7154ZM143.475 49.0257C142.896 46.5133 142.594 42.7292 142.594 37.625H140.594C140.594 42.7708 140.895 46.7367 141.525 49.4743L143.475 49.0257ZM142.594 37.625V13.1875H140.594V37.625H142.594ZM183.25 59L182.413 58.4521L181.4 60H183.25V59ZM198.906 35.0938L199.743 35.6416L200.1 35.0968L199.746 34.5502L198.906 35.0938ZM184.719 13.1875V12.1875H182.88L183.879 13.7311L184.719 13.1875ZM195.531 13.1875L196.38 12.658L196.086 12.1875H195.531V13.1875ZM204.719 27.9062L203.87 28.4358L204.728 29.8088L205.572 28.4279L204.719 27.9062ZM213.719 13.1875V12.1875H213.158L212.866 12.6658L213.719 13.1875ZM224.438 13.1875L225.28 13.7268L226.265 12.1875H224.438V13.1875ZM210.188 35.4375L209.345 34.8982L208.994 35.4476L209.355 35.9909L210.188 35.4375ZM225.844 59V60H227.709L226.677 58.4466L225.844 59ZM214.688 59L213.846 59.5397L214.141 60H214.688V59ZM204.531 43.1562L205.373 42.6166L204.533 41.3053L203.69 42.6154L204.531 43.1562ZM194.344 59V60H194.89L195.185 59.5408L194.344 59ZM184.087 59.5479L199.743 35.6416L198.07 34.5459L182.413 58.4521L184.087 59.5479ZM199.746 34.5502L185.558 12.6439L183.879 13.7311L198.067 35.6373L199.746 34.5502ZM184.719 14.1875H195.531V12.1875H184.719V14.1875ZM194.683 13.717L203.87 28.4358L205.567 27.3767L196.38 12.658L194.683 13.717ZM205.572 28.4279L214.572 13.7092L212.866 12.6658L203.866 27.3846L205.572 28.4279ZM213.719 14.1875H224.438V12.1875H213.719V14.1875ZM223.595 12.6482L209.345 34.8982L211.03 35.9768L225.28 13.7268L223.595 12.6482ZM209.355 35.9909L225.011 59.5534L226.677 58.4466L211.02 34.8841L209.355 35.9909ZM225.844 58H214.688V60H225.844V58ZM215.529 58.4603L205.373 42.6166L203.689 43.6959L213.846 59.5397L215.529 58.4603ZM203.69 42.6154L193.503 58.4592L195.185 59.5408L205.372 43.6971L203.69 42.6154ZM194.344 58H183.25V60H194.344V58ZM248.375 13.1875V12.1875H247.375V13.1875H248.375ZM274 14.0625L274.283 13.1032L274.28 13.1025L274 14.0625ZM285.281 25.7188L284.335 26.041L284.335 26.0431L285.281 25.7188ZM285.375 46.2812L286.321 46.6063L286.321 46.6061L285.375 46.2812ZM280.469 54.375L279.772 53.6574L279.771 53.6587L280.469 54.375ZM273.969 58.0312L274.27 58.9847L274.274 58.9835L273.969 58.0312ZM248.375 59H247.375V60H248.375V59ZM257.625 20.9375V19.9375H256.625V20.9375H257.625ZM257.625 51.2812H256.625V52.2812H257.625V51.2812ZM270.125 50.8438L269.882 49.8736L269.878 49.8747L270.125 50.8438ZM273.844 48.9375L273.176 48.1926L273.169 48.1997L273.844 48.9375ZM276.281 44.5312L277.237 44.824L277.238 44.8213L276.281 44.5312ZM276.281 27.9688L275.332 28.2818L276.281 27.9688ZM269.375 21.375L269.155 22.3505L269.163 22.3523L269.375 21.375ZM248.375 14.1875H265.281V12.1875H248.375V14.1875ZM265.281 14.1875C269.064 14.1875 271.857 14.4792 273.72 15.0225L274.28 13.1025C272.143 12.4792 269.124 12.1875 265.281 12.1875V14.1875ZM273.717 15.0217C276.237 15.764 278.386 17.0772 280.181 18.9694L281.632 17.5931C279.593 15.4437 277.138 13.9444 274.283 13.1033L273.717 15.0217ZM280.181 18.9694C281.987 20.8743 283.376 23.2243 284.335 26.041L286.228 25.3965C285.187 22.3382 283.658 19.7299 281.632 17.5931L280.181 18.9694ZM284.335 26.0431C285.289 28.8233 285.781 32.31 285.781 36.5312H287.781C287.781 32.1692 287.274 28.4475 286.227 25.3944L284.335 26.0431ZM285.781 36.5312C285.781 40.2235 285.322 43.3582 284.429 45.9564L286.321 46.6061C287.303 43.7459 287.781 40.3806 287.781 36.5312H285.781ZM284.429 45.9562C283.325 49.169 281.765 51.7233 279.772 53.6574L281.165 55.0926C283.423 52.9017 285.133 50.0602 286.321 46.6063L284.429 45.9562ZM279.771 53.6587C278.304 55.0873 276.285 56.2384 273.663 57.079L274.274 58.9835C277.111 58.0741 279.425 56.7877 281.166 55.0913L279.771 53.6587ZM273.667 57.0778C271.763 57.68 269.149 58 265.781 58V60C269.247 60 272.091 59.6741 274.27 58.9847L273.667 57.0778ZM265.781 58H248.375V60H265.781V58ZM249.375 59V13.1875H247.375V59H249.375ZM256.625 20.9375V51.2812H258.625V20.9375H256.625ZM257.625 52.2812H264.531V50.2812H257.625V52.2812ZM264.531 52.2812C267.124 52.2812 269.096 52.1376 270.372 51.8128L269.878 49.8747C268.862 50.1332 267.106 50.2812 264.531 50.2812V52.2812ZM270.368 51.8139C272.002 51.4053 273.398 50.7006 274.519 49.6753L273.169 48.1997C272.331 48.9661 271.248 49.5322 269.882 49.8736L270.368 51.8139ZM274.511 49.6823C275.705 48.6131 276.588 46.9465 277.237 44.824L275.325 44.2385C274.725 46.1994 273.983 47.4702 273.177 48.1927L274.511 49.6823ZM277.238 44.8213C277.904 42.6239 278.219 39.7104 278.219 36.125H276.219C276.219 39.6229 275.908 42.3136 275.324 44.2412L277.238 44.8213ZM278.219 36.125C278.219 32.5458 277.906 29.7019 277.231 27.6557L275.332 28.2818C275.907 30.0272 276.219 32.6208 276.219 36.125H278.219ZM277.231 27.6557C276.569 25.6466 275.619 24.0091 274.343 22.8042L272.97 24.2583C273.944 25.1784 274.744 26.4992 275.332 28.2818L277.231 27.6557ZM274.343 22.8042C273.067 21.5995 271.468 20.8057 269.587 20.3977L269.163 22.3523C270.74 22.6943 271.995 23.338 272.97 24.2583L274.343 22.8042ZM269.595 20.3996C268.178 20.0796 265.537 19.9375 261.781 19.9375V21.9375C265.567 21.9375 267.989 22.0871 269.155 22.3504L269.595 20.3996ZM261.781 19.9375H257.625V21.9375H261.781V19.9375ZM313.812 48.4375L313.978 47.4513L313.098 47.3036L312.851 48.1612L313.812 48.4375ZM322.562 49.9062L323.506 50.2371L323.899 49.1166L322.728 48.92L322.562 49.9062ZM317.219 57.25L317.786 58.0732L317.788 58.0722L317.219 57.25ZM295.312 54.0938L294.503 54.6803L294.507 54.6859L295.312 54.0938ZM296.344 29.75L297.077 30.4295L297.08 30.4271L296.344 29.75ZM318.938 29.9688L318.184 30.6262L318.186 30.6286L318.938 29.9688ZM323.031 44.9375V45.9375H324.013L324.031 44.9561L323.031 44.9375ZM301.031 44.9375V43.9375H300.007L300.032 44.9615L301.031 44.9375ZM303.156 51.0312L302.423 51.7117L302.428 51.7169L303.156 51.0312ZM314.312 39.5625V40.5625H315.337L315.312 39.5379L314.312 39.5625ZM312.344 33.7812L311.614 34.4652L311.62 34.4709L312.344 33.7812ZM301.188 39.5625L300.188 39.5712L300.196 40.5625H301.188V39.5625ZM313.647 49.4237L322.397 50.8925L322.728 48.92L313.978 47.4513L313.647 49.4237ZM321.619 49.5754C320.553 52.6149 318.889 54.8776 316.65 56.4278L317.788 58.0722C320.424 56.2474 322.322 53.6143 323.506 50.2371L321.619 49.5754ZM316.651 56.4268C314.438 57.9531 311.617 58.75 308.125 58.75V60.75C311.924 60.75 315.166 59.8802 317.786 58.0732L316.651 56.4268ZM308.125 58.75C302.589 58.75 298.656 56.9558 296.118 53.5016L294.507 54.6859C297.51 58.7734 302.119 60.75 308.125 60.75V58.75ZM296.122 53.5072C294.085 50.6936 293.031 47.0999 293.031 42.6562H291.031C291.031 47.4209 292.165 51.4523 294.503 54.6803L296.122 53.5072ZM293.031 42.6562C293.031 37.3304 294.42 33.2987 297.077 30.4295L295.61 29.0705C292.517 32.4097 291.031 36.9821 291.031 42.6562H293.031ZM297.08 30.4271C299.758 27.5159 303.123 26.0625 307.25 26.0625V24.0625C302.586 24.0625 298.68 25.7341 295.608 29.0729L297.08 30.4271ZM307.25 26.0625C311.943 26.0625 315.547 27.6042 318.184 30.6262L319.691 29.3113C316.62 25.7916 312.432 24.0625 307.25 24.0625V26.0625ZM318.186 30.6286C320.805 33.6109 322.154 38.3059 322.031 44.9189L324.031 44.9561C324.158 38.1108 322.778 32.8266 319.689 29.3089L318.186 30.6286ZM323.031 43.9375H301.031V45.9375H323.031V43.9375ZM300.032 44.9615C300.098 47.7327 300.857 50.0251 302.423 51.7117L303.889 50.3508C302.747 49.1207 302.089 47.3506 302.031 44.9135L300.032 44.9615ZM302.428 51.7169C303.976 53.3602 305.93 54.1875 308.219 54.1875V52.1875C306.466 52.1875 305.044 51.5773 303.884 50.3456L302.428 51.7169ZM308.219 54.1875C309.786 54.1875 311.172 53.7555 312.312 52.8434L311.063 51.2816C310.328 51.8695 309.401 52.1875 308.219 52.1875V54.1875ZM312.312 52.8434C313.469 51.9182 314.262 50.4947 314.774 48.7138L312.851 48.1612C312.405 49.7136 311.781 50.7068 311.063 51.2816L312.312 52.8434ZM315.312 39.5379C315.246 36.848 314.547 34.6451 313.068 33.0916L311.62 34.4709C312.64 35.5424 313.254 37.1937 313.313 39.5871L315.312 39.5379ZM313.073 33.0973C311.639 31.5669 309.856 30.7812 307.781 30.7812V32.7812C309.29 32.7812 310.549 33.3289 311.614 34.4652L313.073 33.0973ZM307.781 30.7812C305.588 30.7812 303.731 31.5947 302.286 33.2079L303.776 34.5421C304.832 33.3636 306.141 32.7812 307.781 32.7812V30.7812ZM302.286 33.2079C300.828 34.8367 300.165 36.998 300.188 39.5712L302.187 39.5538C302.168 37.3354 302.735 35.705 303.776 34.5421L302.286 33.2079ZM301.188 40.5625H314.312V38.5625H301.188V40.5625ZM327.125 49.5312L326.974 48.5427L325.88 48.7095L326.157 49.7813L327.125 49.5312ZM335.938 48.1875L336.914 47.9731L336.713 47.0576L335.787 47.1989L335.938 48.1875ZM338.219 52.0938L337.603 52.8816L337.612 52.8885L338.219 52.0938ZM348.156 52.1562L348.744 52.965L348.752 52.9594L348.76 52.9537L348.156 52.1562ZM348.688 48.1562L349.412 47.4666L349.395 47.4489L349.377 47.4321L348.688 48.1562ZM345.75 47L345.977 46.026L345.965 46.0235L345.75 47ZM332.281 42.7188L331.718 43.5447L331.718 43.5452L332.281 42.7188ZM352.438 27.2812L352.994 26.4504L352.438 27.2812ZM357 33.8438L357.182 34.8271L358.266 34.6266L357.961 33.5672L357 33.8438ZM348.719 35.375L347.754 35.6394L347.997 36.5254L348.901 36.3583L348.719 35.375ZM346.688 32.4062L346.113 33.2247L346.121 33.2303L346.688 32.4062ZM337.5 32.3438L336.957 31.5037L336.945 31.5115L336.933 31.5197L337.5 32.3438ZM337.375 35.7188L336.775 36.5188L336.782 36.5238L337.375 35.7188ZM345.562 38.1875L345.341 39.1625L345.341 39.1628L345.562 38.1875ZM355.375 42.0938L356.024 41.3326L356.014 41.3248L355.375 42.0938ZM332.281 57L331.709 57.8198L331.712 57.822L332.281 57ZM327.276 50.5198L336.088 49.1761L335.787 47.1989L326.974 48.5427L327.276 50.5198ZM334.961 48.4019C335.375 50.2896 336.238 51.8148 337.603 52.8816L338.835 51.3059C337.907 50.581 337.25 49.502 336.914 47.9731L334.961 48.4019ZM337.612 52.8885C338.993 53.9432 340.841 54.4062 343.031 54.4062V52.4062C341.096 52.4062 339.736 51.9943 338.826 51.299L337.612 52.8885ZM343.031 54.4062C345.396 54.4062 347.352 53.9774 348.744 52.965L347.568 51.3475C346.668 52.0018 345.208 52.4062 343.031 52.4062V54.4062ZM348.76 52.9537C349.784 52.1784 350.312 51.1001 350.312 49.8125H348.312C348.312 50.4832 348.07 50.9674 347.553 51.3588L348.76 52.9537ZM350.312 49.8125C350.312 48.918 350.024 48.11 349.412 47.4666L347.963 48.8459C348.184 49.0775 348.312 49.3737 348.312 49.8125H350.312ZM349.377 47.4321C349.02 47.092 348.525 46.8343 347.991 46.6242C347.44 46.4073 346.764 46.2095 345.977 46.0261L345.523 47.9739C346.257 48.1447 346.831 48.3167 347.259 48.4852C347.704 48.6605 347.917 48.8039 347.998 48.8804L349.377 47.4321ZM345.965 46.0235C342.439 45.2457 339.578 44.5057 337.373 43.8048C335.145 43.0965 333.666 42.452 332.844 41.8923L331.718 43.5452C332.793 44.2772 334.506 44.992 336.767 45.7108C339.052 46.437 341.977 47.1918 345.535 47.9765L345.965 46.0235ZM332.845 41.8928C330.494 40.2881 329.344 38.1082 329.344 35.25H327.344C327.344 38.7668 328.819 41.5661 331.718 43.5447L332.845 41.8928ZM329.344 35.25C329.344 32.6799 330.342 30.535 332.403 28.7573L331.097 27.2427C328.617 29.3817 327.344 32.0701 327.344 35.25H329.344ZM332.403 28.7573C334.412 27.0251 337.648 26.0625 342.312 26.0625V24.0625C337.436 24.0625 333.63 25.0583 331.097 27.2427L332.403 28.7573ZM342.312 26.0625C346.781 26.0625 349.917 26.7967 351.881 28.1121L352.994 26.4504C350.541 24.8075 346.927 24.0625 342.312 24.0625V26.0625ZM351.881 28.1121C353.867 29.4425 355.262 31.419 356.039 34.1203L357.961 33.5672C357.072 30.4769 355.424 28.0784 352.994 26.4504L351.881 28.1121ZM356.818 32.8604L348.537 34.3917L348.901 36.3583L357.182 34.8271L356.818 32.8604ZM349.683 35.1106C349.273 33.6165 348.469 32.4176 347.254 31.5822L346.121 33.2303C346.906 33.7699 347.456 34.5501 347.754 35.6394L349.683 35.1106ZM347.262 31.5878C346.047 30.7345 344.405 30.375 342.469 30.375V32.375C344.199 32.375 345.37 32.703 346.113 33.2247L347.262 31.5878ZM342.469 30.375C340.115 30.375 338.211 30.6939 336.957 31.5037L338.043 33.1838C338.789 32.702 340.197 32.375 342.469 32.375V30.375ZM336.933 31.5197C336.03 32.1407 335.5 33.0265 335.5 34.125H337.5C337.5 33.7652 337.636 33.4635 338.067 33.1678L336.933 31.5197ZM335.5 34.125C335.5 35.1198 335.987 35.9281 336.775 36.5187L337.975 34.9188C337.596 34.6344 337.5 34.3802 337.5 34.125H335.5ZM336.782 36.5238C337.085 36.7474 337.501 36.9459 337.961 37.1298C338.438 37.3203 339.029 37.5205 339.727 37.7309C341.123 38.1519 342.998 38.6291 345.341 39.1625L345.784 37.2125C343.461 36.6834 341.637 36.2179 340.304 35.816C339.638 35.615 339.106 35.4336 338.703 35.2725C338.283 35.1049 338.061 34.9818 337.968 34.9137L336.782 36.5238ZM345.341 39.1628C349.999 40.2184 353.072 41.4798 354.736 42.8627L356.014 41.3248C353.969 39.6244 350.501 38.2816 345.784 37.2122L345.341 39.1628ZM354.726 42.8548C356.3 44.1962 357.125 46.0745 357.125 48.625H359.125C359.125 45.5921 358.116 43.1163 356.024 41.3327L354.726 42.8548ZM357.125 48.625C357.125 51.3435 356.007 53.6914 353.66 55.7108L354.965 57.2267C357.702 54.8711 359.125 51.9899 359.125 48.625H357.125ZM353.66 55.7108C351.37 57.6817 347.884 58.75 343.031 58.75V60.75C348.137 60.75 352.171 59.6308 354.965 57.2267L353.66 55.7108ZM343.031 58.75C338.634 58.75 335.274 57.8572 332.851 56.178L331.712 57.822C334.58 59.8095 338.386 60.75 343.031 60.75V58.75ZM332.854 56.1802C330.428 54.4857 328.847 52.1997 328.093 49.2812L326.157 49.7813C327.028 53.1545 328.885 55.8477 331.709 57.8198L332.854 56.1802ZM365.844 21.3125H364.844V22.3125H365.844V21.3125ZM365.844 13.1875V12.1875H364.844V13.1875H365.844ZM374.625 13.1875H375.625V12.1875H374.625V13.1875ZM374.625 21.3125V22.3125H375.625V21.3125H374.625ZM365.844 59H364.844V60H365.844V59ZM365.844 25.8125V24.8125H364.844V25.8125H365.844ZM374.625 25.8125H375.625V24.8125H374.625V25.8125ZM374.625 59V60H375.625V59H374.625ZM366.844 21.3125V13.1875H364.844V21.3125H366.844ZM365.844 14.1875H374.625V12.1875H365.844V14.1875ZM373.625 13.1875V21.3125H375.625V13.1875H373.625ZM374.625 20.3125H365.844V22.3125H374.625V20.3125ZM366.844 59V25.8125H364.844V59H366.844ZM365.844 26.8125H374.625V24.8125H365.844V26.8125ZM373.625 25.8125V59H375.625V25.8125H373.625ZM374.625 58H365.844V60H374.625V58ZM382.844 61.1875L382.964 60.1948L381.899 60.0653L381.845 61.1376L382.844 61.1875ZM392.875 62.4062L393.865 62.2648L393.757 61.506L392.996 61.4135L392.875 62.4062ZM394.031 64.8125L394.631 64.0125L394.625 64.0075L394.618 64.0026L394.031 64.8125ZM403.125 64.7188L402.614 63.8592L402.611 63.8613L403.125 64.7188ZM404.875 62.5L405.807 62.8615L405.81 62.8549L405.812 62.8482L404.875 62.5ZM405.281 53.625H406.281V50.5677L404.475 53.034L405.281 53.625ZM384.75 53.3438L383.925 53.9091L383.927 53.912L384.75 53.3438ZM385.688 29.4688L384.95 28.7937L384.947 28.7966L385.688 29.4688ZM405.844 30.4688L405.04 31.0635L406.844 33.5016V30.4688H405.844ZM405.844 25.8125V24.8125H404.844V25.8125H405.844ZM414.062 25.8125H415.062V24.8125H414.062V25.8125ZM410.375 68.9375L411.062 69.6638L410.375 68.9375ZM405.688 71.5312L405.383 70.5786L405.38 70.5795L405.688 71.5312ZM386.344 69.5625L386.979 68.7904L386.975 68.787L386.344 69.5625ZM392.719 49.4688L391.946 50.1042L391.955 50.1147L392.719 49.4688ZM403.219 49.4062L403.967 50.07L403.971 50.0654L403.219 49.4062ZM392.719 34.25L391.951 33.6089L391.951 33.6098L392.719 34.25ZM382.723 62.1802L392.754 63.399L392.996 61.4135L382.964 60.1948L382.723 62.1802ZM391.885 62.5477C392.068 63.8313 392.522 64.9544 393.445 65.6224L394.618 64.0026C394.332 63.7956 394.015 63.3145 393.865 62.2648L391.885 62.5477ZM393.431 65.6125C394.523 66.4316 396.101 66.75 397.969 66.75V64.75C396.254 64.75 395.206 64.4434 394.631 64.0125L393.431 65.6125ZM397.969 66.75C400.328 66.75 402.263 66.402 403.639 65.5762L402.611 63.8613C401.695 64.4105 400.193 64.75 397.969 64.75V66.75ZM403.636 65.5783C404.639 64.9822 405.349 64.0434 405.807 62.8615L403.943 62.1385C403.609 62.9982 403.153 63.5386 402.614 63.8592L403.636 65.5783ZM405.812 62.8482C406.153 61.9306 406.281 60.4187 406.281 58.4688H404.281C404.281 60.4355 404.138 61.6111 403.938 62.1518L405.812 62.8482ZM406.281 58.4688V53.625H404.281V58.4688H406.281ZM404.475 53.034C402.014 56.3931 398.986 58 395.344 58V60C399.701 60 403.299 58.0236 406.088 54.216L404.475 53.034ZM395.344 58C391.225 58 387.997 56.285 385.573 52.7755L383.927 53.912C386.712 57.9442 390.546 60 395.344 60V58ZM385.575 52.7784C383.671 50.0004 382.688 46.5011 382.688 42.2188H380.688C380.688 46.8114 381.746 50.7287 383.925 53.9091L385.575 52.7784ZM382.688 42.2188C382.688 36.8049 383.985 32.8318 386.428 30.1409L384.947 28.7966C382.057 31.9807 380.688 36.5076 380.688 42.2188H382.688ZM386.425 30.1438C388.923 27.4132 391.989 26.0625 395.688 26.0625V24.0625C391.428 24.0625 387.827 25.6493 384.95 28.7937L386.425 30.1438ZM395.688 26.0625C399.442 26.0625 402.542 27.6869 405.04 31.0635L406.648 29.874C403.813 26.0422 400.141 24.0625 395.688 24.0625V26.0625ZM406.844 30.4688V25.8125H404.844V30.4688H406.844ZM405.844 26.8125H414.062V24.8125H405.844V26.8125ZM413.062 25.8125V55.5938H415.062V25.8125H413.062ZM413.062 55.5938C413.062 59.4826 412.739 62.2783 412.145 64.0588L414.042 64.6912C414.741 62.5967 415.062 59.5382 415.062 55.5938H413.062ZM412.145 64.0588C411.537 65.8815 410.707 67.2467 409.688 68.2112L411.062 69.6638C412.377 68.4199 413.358 66.7435 414.042 64.6912L412.145 64.0588ZM409.688 68.2112C408.656 69.1874 407.237 69.9869 405.383 70.5786L405.992 72.4839C408.054 71.8256 409.76 70.896 411.062 69.6638L409.688 68.2112ZM405.38 70.5795C403.577 71.1614 401.231 71.4688 398.312 71.4688V73.4688C401.352 73.4688 403.923 73.1511 405.995 72.483L405.38 70.5795ZM398.312 71.4688C392.747 71.4688 389.056 70.4993 386.979 68.7904L385.708 70.3346C388.34 72.5007 392.628 73.4688 398.312 73.4688V71.4688ZM386.975 68.787C384.847 67.0545 383.812 64.8986 383.812 62.25H381.812C381.812 65.5181 383.132 68.2372 385.712 70.338L386.975 68.787ZM383.812 62.25C383.812 61.9804 383.822 61.6439 383.843 61.2374L381.845 61.1376C381.824 61.5644 381.812 61.9363 381.812 62.25H383.812ZM389.688 41.7188C389.688 45.3318 390.376 48.195 391.947 50.1041L393.491 48.8334C392.353 47.4508 391.688 45.1474 391.688 41.7188H389.688ZM391.955 50.1147C393.506 51.9478 395.466 52.9062 397.781 52.9062V50.9062C396.096 50.9062 394.681 50.2397 393.482 48.8228L391.955 50.1147ZM397.781 52.9062C400.225 52.9062 402.306 51.9412 403.967 50.07L402.471 48.7425C401.173 50.2047 399.629 50.9062 397.781 50.9062V52.9062ZM403.971 50.0654C405.67 48.1266 406.438 45.3609 406.438 41.9375H404.438C404.438 45.0974 403.726 47.3109 402.467 48.7471L403.971 50.0654ZM406.438 41.9375C406.438 38.3912 405.711 35.5594 404.074 33.6336L402.551 34.9289C403.747 36.3364 404.438 38.6088 404.438 41.9375H406.438ZM404.074 33.6336C402.47 31.7459 400.401 30.7812 397.938 30.7812V32.7812C399.808 32.7812 401.322 33.4833 402.551 34.9289L404.074 33.6336ZM397.938 30.7812C395.53 30.7812 393.512 31.7407 391.951 33.6089L393.486 34.8911C394.675 33.4677 396.136 32.7812 397.938 32.7812V30.7812ZM391.951 33.6098C390.381 35.4935 389.688 38.2597 389.688 41.7188H391.688C391.688 38.4695 392.348 36.2565 393.487 34.8902L391.951 33.6098ZM452.969 59V60H453.969V59H452.969ZM444.188 59H443.188V60H444.188V59ZM443.625 35.125L442.682 35.4578L442.684 35.4637L443.625 35.125ZM441.781 32.6562L441.208 33.4755L441.217 33.4821L441.781 32.6562ZM432.156 36.3438L431.207 36.0275L431.203 36.0405L432.156 36.3438ZM431.5 59V60H432.5V59H431.5ZM422.719 59H421.719V60H422.719V59ZM422.719 25.8125V24.8125H421.719V25.8125H422.719ZM430.875 25.8125H431.875V24.8125H430.875V25.8125ZM430.875 30.6875H429.875V33.6186L431.666 31.2987L430.875 30.6875ZM447.125 26.125L446.721 27.0398L446.731 27.0441L447.125 26.125ZM450.75 28.7812L449.95 29.3813L449.957 29.391L450.75 28.7812ZM452.469 32.4688L451.494 32.6904L451.495 32.6974L451.497 32.7044L452.469 32.4688ZM452.969 58H444.188V60H452.969V58ZM445.188 59V42.0625H443.188V59H445.188ZM445.188 42.0625C445.188 40.2567 445.14 38.7532 445.044 37.5598C444.949 36.3897 444.801 35.4393 444.566 34.7863L442.684 35.4637C442.824 35.8524 442.958 36.579 443.05 37.7214C443.141 38.8405 443.188 40.285 443.188 42.0625H445.188ZM444.568 34.7922C444.129 33.5481 443.391 32.5445 442.345 31.8304L441.217 33.4821C441.88 33.9347 442.371 34.5769 442.682 35.4578L444.568 34.7922ZM442.355 31.837C441.326 31.1173 440.107 30.7812 438.75 30.7812V32.7812C439.768 32.7812 440.569 33.0286 441.208 33.4755L442.355 31.837ZM438.75 30.7812C437.034 30.7812 435.47 31.2552 434.089 32.208L435.224 33.8545C436.259 33.1406 437.424 32.7812 438.75 32.7812V30.7812ZM434.089 32.208C432.704 33.1629 431.735 34.4439 431.208 36.0275L433.105 36.66C433.494 35.4936 434.192 34.5663 435.224 33.8545L434.089 32.208ZM431.203 36.0405C430.713 37.5819 430.5 40.2696 430.5 43.9688H432.5C432.5 40.2512 432.725 37.8556 433.109 36.647L431.203 36.0405ZM430.5 43.9688V59H432.5V43.9688H430.5ZM431.5 58H422.719V60H431.5V58ZM423.719 59V25.8125H421.719V59H423.719ZM422.719 26.8125H430.875V24.8125H422.719V26.8125ZM429.875 25.8125V30.6875H431.875V25.8125H429.875ZM431.666 31.2987C434.39 27.7719 437.753 26.0625 441.812 26.0625V24.0625C437.08 24.0625 433.152 26.1031 430.084 30.0763L431.666 31.2987ZM441.812 26.0625C443.626 26.0625 445.257 26.3933 446.721 27.0398L447.529 25.2102C445.785 24.44 443.874 24.0625 441.812 24.0625V26.0625ZM446.731 27.0441C448.22 27.6821 449.269 28.4729 449.95 29.3813L451.55 28.1812C450.606 26.9229 449.239 25.9429 447.519 25.2059L446.731 27.0441ZM449.957 29.391C450.7 30.356 451.212 31.4518 451.494 32.6904L453.444 32.2471C453.1 30.7357 452.467 29.3732 451.543 28.1715L449.957 29.391ZM451.497 32.7044C451.802 33.9637 451.969 35.8389 451.969 38.375H453.969C453.969 35.7861 453.802 33.7238 453.441 32.2331L451.497 32.7044ZM451.969 38.375V59H453.969V38.375H451.969Z" fill="black"/>
</svg>
